<svg width="1000" height="1000" viewBox="0 0 1000 1000" fill="none" xmlns="http://www.w3.org/2000/svg">
<g clip-path="url(#clip0_245_2)">
<rect width="1000" height="1000" rx="500" fill="black"/>
<g opacity="0.54">
<rect width="807" height="807" transform="translate(-69 150)" fill="url(#paint0_radial_245_2)"/>
</g>
<g opacity="0.81">
<rect width="807" height="807" transform="translate(-193 -12)" fill="url(#paint1_radial_245_2)"/>
</g>
<g opacity="0.87">
<rect width="1120" height="1120" transform="translate(111 8)" fill="url(#paint2_radial_245_2)"/>
</g>
<g filter="url(#filter0_d_245_2)">
<path d="M245.562 370.375C242.646 373.292 239 374.75 234.625 374.75C230.25 374.75 226.5 373.292 223.375 370.375C220.458 367.25 219 363.5 219 359.125C219 354.75 220.458 351.104 223.375 348.188C226.5 345.063 230.25 343.5 234.625 343.5C239 343.5 242.646 345.063 245.562 348.188C248.687 351.104 250.25 354.75 250.25 359.125C250.25 363.5 248.687 367.25 245.562 370.375ZM526.812 370.375C523.896 373.292 520.25 374.75 515.875 374.75C511.5 374.75 507.75 373.292 504.625 370.375C501.708 367.25 500.25 363.5 500.25 359.125C500.25 354.75 501.708 351.104 504.625 348.188C507.75 345.063 511.5 343.5 515.875 343.5C520.25 343.5 523.896 345.063 526.812 348.188C529.937 351.104 531.5 354.75 531.5 359.125C531.5 363.5 529.937 367.25 526.812 370.375ZM495.562 370.375C492.646 373.292 489 374.75 484.625 374.75C480.25 374.75 476.5 373.292 473.375 370.375C470.458 367.25 469 363.5 469 359.125C469 354.75 470.458 351.104 473.375 348.188C476.5 345.063 480.25 343.5 484.625 343.5C489 343.5 492.646 345.063 495.562 348.188C498.687 351.104 500.25 354.75 500.25 359.125C500.25 363.5 498.687 367.25 495.562 370.375ZM276.812 370.375C273.896 373.292 270.25 374.75 265.875 374.75C261.5 374.75 257.75 373.292 254.625 370.375C251.708 367.25 250.25 363.5 250.25 359.125C250.25 354.75 251.708 351.104 254.625 348.188C257.75 345.063 261.5 343.5 265.875 343.5C270.25 343.5 273.896 345.063 276.812 348.188C279.937 351.104 281.5 354.75 281.5 359.125C281.5 363.5 279.937 367.25 276.812 370.375ZM245.562 401.625C242.646 404.542 239 406 234.625 406C230.25 406 226.5 404.542 223.375 401.625C220.458 398.5 219 394.75 219 390.375C219 386 220.458 382.354 223.375 379.438C226.5 376.313 230.25 374.75 234.625 374.75C239 374.75 242.646 376.313 245.562 379.438C248.687 382.354 250.25 386 250.25 390.375C250.25 394.75 248.687 398.5 245.562 401.625ZM526.812 401.625C523.896 404.542 520.25 406 515.875 406C511.5 406 507.75 404.542 504.625 401.625C501.708 398.5 500.25 394.75 500.25 390.375C500.25 386 501.708 382.354 504.625 379.438C507.75 376.313 511.5 374.75 515.875 374.75C520.25 374.75 523.896 376.313 526.812 379.438C529.937 382.354 531.5 386 531.5 390.375C531.5 394.75 529.937 398.5 526.812 401.625ZM276.812 401.625C273.896 404.542 270.25 406 265.875 406C261.5 406 257.75 404.542 254.625 401.625C251.708 398.5 250.25 394.75 250.25 390.375C250.25 386 251.708 382.354 254.625 379.438C257.75 376.313 261.5 374.75 265.875 374.75C270.25 374.75 273.896 376.313 276.812 379.438C279.937 382.354 281.5 386 281.5 390.375C281.5 394.75 279.937 398.5 276.812 401.625ZM495.562 401.625C492.646 404.542 489 406 484.625 406C480.25 406 476.5 404.542 473.375 401.625C470.458 398.5 469 394.75 469 390.375C469 386 470.458 382.354 473.375 379.438C476.5 376.313 480.25 374.75 484.625 374.75C489 374.75 492.646 376.313 495.562 379.438C498.687 382.354 500.25 386 500.25 390.375C500.25 394.75 498.687 398.5 495.562 401.625ZM245.562 432.875C242.646 435.792 239 437.25 234.625 437.25C230.25 437.25 226.5 435.792 223.375 432.875C220.458 429.75 219 426 219 421.625C219 417.25 220.458 413.604 223.375 410.688C226.5 407.563 230.25 406 234.625 406C239 406 242.646 407.563 245.562 410.688C248.687 413.604 250.25 417.25 250.25 421.625C250.25 426 248.687 429.75 245.562 432.875ZM464.312 432.875C461.396 435.792 457.75 437.25 453.375 437.25C449 437.25 445.25 435.792 442.125 432.875C439.208 429.75 437.75 426 437.75 421.625C437.75 417.25 439.208 413.604 442.125 410.688C445.25 407.563 449 406 453.375 406C457.75 406 461.396 407.563 464.312 410.688C467.437 413.604 469 417.25 469 421.625C469 426 467.437 429.75 464.312 432.875ZM308.062 432.875C305.146 435.792 301.5 437.25 297.125 437.25C292.75 437.25 289 435.792 285.875 432.875C282.958 429.75 281.5 426 281.5 421.625C281.5 417.25 282.958 413.604 285.875 410.688C289 407.563 292.75 406 297.125 406C301.5 406 305.146 407.563 308.062 410.688C311.187 413.604 312.75 417.25 312.75 421.625C312.75 426 311.187 429.75 308.062 432.875ZM495.562 432.875C492.646 435.792 489 437.25 484.625 437.25C480.25 437.25 476.5 435.792 473.375 432.875C470.458 429.75 469 426 469 421.625C469 417.25 470.458 413.604 473.375 410.688C476.5 407.563 480.25 406 484.625 406C489 406 492.646 407.563 495.562 410.688C498.687 413.604 500.25 417.25 500.25 421.625C500.25 426 498.687 429.75 495.562 432.875ZM526.812 432.875C523.896 435.792 520.25 437.25 515.875 437.25C511.5 437.25 507.75 435.792 504.625 432.875C501.708 429.75 500.25 426 500.25 421.625C500.25 417.25 501.708 413.604 504.625 410.688C507.75 407.563 511.5 406 515.875 406C520.25 406 523.896 407.563 526.812 410.688C529.937 413.604 531.5 417.25 531.5 421.625C531.5 426 529.937 429.75 526.812 432.875ZM276.812 432.875C273.896 435.792 270.25 437.25 265.875 437.25C261.5 437.25 257.75 435.792 254.625 432.875C251.708 429.75 250.25 426 250.25 421.625C250.25 417.25 251.708 413.604 254.625 410.688C257.75 407.563 261.5 406 265.875 406C270.25 406 273.896 407.563 276.812 410.688C279.937 413.604 281.5 417.25 281.5 421.625C281.5 426 279.937 429.75 276.812 432.875ZM495.562 464.125C492.646 467.042 489 468.5 484.625 468.5C480.25 468.5 476.5 467.042 473.375 464.125C470.458 461 469 457.25 469 452.875C469 448.5 470.458 444.854 473.375 441.938C476.5 438.813 480.25 437.25 484.625 437.25C489 437.25 492.646 438.813 495.562 441.938C498.687 444.854 500.25 448.5 500.25 452.875C500.25 457.25 498.687 461 495.562 464.125ZM245.562 464.125C242.646 467.042 239 468.5 234.625 468.5C230.25 468.5 226.5 467.042 223.375 464.125C220.458 461 219 457.25 219 452.875C219 448.5 220.458 444.854 223.375 441.938C226.5 438.813 230.25 437.25 234.625 437.25C239 437.25 242.646 438.813 245.562 441.938C248.687 444.854 250.25 448.5 250.25 452.875C250.25 457.25 248.687 461 245.562 464.125ZM526.812 464.125C523.896 467.042 520.25 468.5 515.875 468.5C511.5 468.5 507.75 467.042 504.625 464.125C501.708 461 500.25 457.25 500.25 452.875C500.25 448.5 501.708 444.854 504.625 441.938C507.75 438.813 511.5 437.25 515.875 437.25C520.25 437.25 523.896 438.813 526.812 441.938C529.937 444.854 531.5 448.5 531.5 452.875C531.5 457.25 529.937 461 526.812 464.125ZM464.312 464.125C461.396 467.042 457.75 468.5 453.375 468.5C449 468.5 445.25 467.042 442.125 464.125C439.208 461 437.75 457.25 437.75 452.875C437.75 448.5 439.208 444.854 442.125 441.938C445.25 438.813 449 437.25 453.375 437.25C457.75 437.25 461.396 438.813 464.312 441.938C467.437 444.854 469 448.5 469 452.875C469 457.25 467.437 461 464.312 464.125ZM276.812 464.125C273.896 467.042 270.25 468.5 265.875 468.5C261.5 468.5 257.75 467.042 254.625 464.125C251.708 461 250.25 457.25 250.25 452.875C250.25 448.5 251.708 444.854 254.625 441.938C257.75 438.813 261.5 437.25 265.875 437.25C270.25 437.25 273.896 438.813 276.812 441.938C279.937 444.854 281.5 448.5 281.5 452.875C281.5 457.25 279.937 461 276.812 464.125ZM308.062 464.125C305.146 467.042 301.5 468.5 297.125 468.5C292.75 468.5 289 467.042 285.875 464.125C282.958 461 281.5 457.25 281.5 452.875C281.5 448.5 282.958 444.854 285.875 441.938C289 438.813 292.75 437.25 297.125 437.25C301.5 437.25 305.146 438.813 308.062 441.938C311.187 444.854 312.75 448.5 312.75 452.875C312.75 457.25 311.187 461 308.062 464.125ZM245.562 495.375C242.646 498.292 239 499.75 234.625 499.75C230.25 499.75 226.5 498.292 223.375 495.375C220.458 492.25 219 488.5 219 484.125C219 479.75 220.458 476.104 223.375 473.188C226.5 470.063 230.25 468.5 234.625 468.5C239 468.5 242.646 470.063 245.562 473.188C248.687 476.104 250.25 479.75 250.25 484.125C250.25 488.5 248.687 492.25 245.562 495.375ZM276.812 495.375C273.896 498.292 270.25 499.75 265.875 499.75C261.5 499.75 257.75 498.292 254.625 495.375C251.708 492.25 250.25 488.5 250.25 484.125C250.25 479.75 251.708 476.104 254.625 473.188C257.75 470.063 261.5 468.5 265.875 468.5C270.25 468.5 273.896 470.063 276.812 473.188C279.937 476.104 281.5 479.75 281.5 484.125C281.5 488.5 279.937 492.25 276.812 495.375ZM495.562 495.375C492.646 498.292 489 499.75 484.625 499.75C480.25 499.75 476.5 498.292 473.375 495.375C470.458 492.25 469 488.5 469 484.125C469 479.75 470.458 476.104 473.375 473.188C476.5 470.063 480.25 468.5 484.625 468.5C489 468.5 492.646 470.063 495.562 473.188C498.687 476.104 500.25 479.75 500.25 484.125C500.25 488.5 498.687 492.25 495.562 495.375ZM526.812 495.375C523.896 498.292 520.25 499.75 515.875 499.75C511.5 499.75 507.75 498.292 504.625 495.375C501.708 492.25 500.25 488.5 500.25 484.125C500.25 479.75 501.708 476.104 504.625 473.188C507.75 470.063 511.5 468.5 515.875 468.5C520.25 468.5 523.896 470.063 526.812 473.188C529.937 476.104 531.5 479.75 531.5 484.125C531.5 488.5 529.937 492.25 526.812 495.375ZM308.062 495.375C305.146 498.292 301.5 499.75 297.125 499.75C292.75 499.75 289 498.292 285.875 495.375C282.958 492.25 281.5 488.5 281.5 484.125C281.5 479.75 282.958 476.104 285.875 473.188C289 470.063 292.75 468.5 297.125 468.5C301.5 468.5 305.146 470.063 308.062 473.188C311.187 476.104 312.75 479.75 312.75 484.125C312.75 488.5 311.187 492.25 308.062 495.375ZM464.312 495.375C461.396 498.292 457.75 499.75 453.375 499.75C449 499.75 445.25 498.292 442.125 495.375C439.208 492.25 437.75 488.5 437.75 484.125C437.75 479.75 439.208 476.104 442.125 473.188C445.25 470.063 449 468.5 453.375 468.5C457.75 468.5 461.396 470.063 464.312 473.188C467.437 476.104 469 479.75 469 484.125C469 488.5 467.437 492.25 464.312 495.375ZM433.062 495.375C430.146 498.292 426.5 499.75 422.125 499.75C417.75 499.75 414 498.292 410.875 495.375C407.958 492.25 406.5 488.5 406.5 484.125C406.5 479.75 407.958 476.104 410.875 473.188C414 470.063 417.75 468.5 422.125 468.5C426.5 468.5 430.146 470.063 433.062 473.188C436.187 476.104 437.75 479.75 437.75 484.125C437.75 488.5 436.187 492.25 433.062 495.375ZM339.312 495.375C336.396 498.292 332.75 499.75 328.375 499.75C324 499.75 320.25 498.292 317.125 495.375C314.208 492.25 312.75 488.5 312.75 484.125C312.75 479.75 314.208 476.104 317.125 473.188C320.25 470.063 324 468.5 328.375 468.5C332.75 468.5 336.396 470.063 339.312 473.188C342.437 476.104 344 479.75 344 484.125C344 488.5 342.437 492.25 339.312 495.375ZM245.562 526.625C242.646 529.542 239 531 234.625 531C230.25 531 226.5 529.542 223.375 526.625C220.458 523.5 219 519.75 219 515.375C219 511 220.458 507.354 223.375 504.438C226.5 501.313 230.25 499.75 234.625 499.75C239 499.75 242.646 501.313 245.562 504.438C248.687 507.354 250.25 511 250.25 515.375C250.25 519.75 248.687 523.5 245.562 526.625ZM276.812 526.625C273.896 529.542 270.25 531 265.875 531C261.5 531 257.75 529.542 254.625 526.625C251.708 523.5 250.25 519.75 250.25 515.375C250.25 511 251.708 507.354 254.625 504.438C257.75 501.313 261.5 499.75 265.875 499.75C270.25 499.75 273.896 501.313 276.812 504.438C279.937 507.354 281.5 511 281.5 515.375C281.5 519.75 279.937 523.5 276.812 526.625ZM495.562 526.625C492.646 529.542 489 531 484.625 531C480.25 531 476.5 529.542 473.375 526.625C470.458 523.5 469 519.75 469 515.375C469 511 470.458 507.354 473.375 504.438C476.5 501.313 480.25 499.75 484.625 499.75C489 499.75 492.646 501.313 495.562 504.438C498.687 507.354 500.25 511 500.25 515.375C500.25 519.75 498.687 523.5 495.562 526.625ZM526.812 526.625C523.896 529.542 520.25 531 515.875 531C511.5 531 507.75 529.542 504.625 526.625C501.708 523.5 500.25 519.75 500.25 515.375C500.25 511 501.708 507.354 504.625 504.438C507.75 501.313 511.5 499.75 515.875 499.75C520.25 499.75 523.896 501.313 526.812 504.438C529.937 507.354 531.5 511 531.5 515.375C531.5 519.75 529.937 523.5 526.812 526.625ZM308.062 526.625C305.146 529.542 301.5 531 297.125 531C292.75 531 289 529.542 285.875 526.625C282.958 523.5 281.5 519.75 281.5 515.375C281.5 511 282.958 507.354 285.875 504.438C289 501.313 292.75 499.75 297.125 499.75C301.5 499.75 305.146 501.313 308.062 504.438C311.187 507.354 312.75 511 312.75 515.375C312.75 519.75 311.187 523.5 308.062 526.625ZM464.312 526.625C461.396 529.542 457.75 531 453.375 531C449 531 445.25 529.542 442.125 526.625C439.208 523.5 437.75 519.75 437.75 515.375C437.75 511 439.208 507.354 442.125 504.438C445.25 501.313 449 499.75 453.375 499.75C457.75 499.75 461.396 501.313 464.312 504.438C467.437 507.354 469 511 469 515.375C469 519.75 467.437 523.5 464.312 526.625ZM339.312 526.625C336.396 529.542 332.75 531 328.375 531C324 531 320.25 529.542 317.125 526.625C314.208 523.5 312.75 519.75 312.75 515.375C312.75 511 314.208 507.354 317.125 504.438C320.25 501.313 324 499.75 328.375 499.75C332.75 499.75 336.396 501.313 339.312 504.438C342.437 507.354 344 511 344 515.375C344 519.75 342.437 523.5 339.312 526.625ZM433.062 526.625C430.146 529.542 426.5 531 422.125 531C417.75 531 414 529.542 410.875 526.625C407.958 523.5 406.5 519.75 406.5 515.375C406.5 511 407.958 507.354 410.875 504.438C414 501.313 417.75 499.75 422.125 499.75C426.5 499.75 430.146 501.313 433.062 504.438C436.187 507.354 437.75 511 437.75 515.375C437.75 519.75 436.187 523.5 433.062 526.625ZM245.562 557.875C242.646 560.792 239 562.25 234.625 562.25C230.25 562.25 226.5 560.792 223.375 557.875C220.458 554.75 219 551 219 546.625C219 542.25 220.458 538.604 223.375 535.688C226.5 532.563 230.25 531 234.625 531C239 531 242.646 532.563 245.562 535.688C248.687 538.604 250.25 542.25 250.25 546.625C250.25 551 248.687 554.75 245.562 557.875ZM433.062 557.875C430.146 560.792 426.5 562.25 422.125 562.25C417.75 562.25 414 560.792 410.875 557.875C407.958 554.75 406.5 551 406.5 546.625C406.5 542.25 407.958 538.604 410.875 535.688C414 532.563 417.75 531 422.125 531C426.5 531 430.146 532.563 433.062 535.688C436.187 538.604 437.75 542.25 437.75 546.625C437.75 551 436.187 554.75 433.062 557.875ZM370.562 557.875C367.646 560.792 364 562.25 359.625 562.25C355.25 562.25 351.5 560.792 348.375 557.875C345.458 554.75 344 551 344 546.625C344 542.25 345.458 538.604 348.375 535.688C351.5 532.563 355.25 531 359.625 531C364 531 367.646 532.563 370.562 535.688C373.687 538.604 375.25 542.25 375.25 546.625C375.25 551 373.687 554.75 370.562 557.875ZM495.562 557.875C492.646 560.792 489 562.25 484.625 562.25C480.25 562.25 476.5 560.792 473.375 557.875C470.458 554.75 469 551 469 546.625C469 542.25 470.458 538.604 473.375 535.688C476.5 532.563 480.25 531 484.625 531C489 531 492.646 532.563 495.562 535.688C498.687 538.604 500.25 542.25 500.25 546.625C500.25 551 498.687 554.75 495.562 557.875ZM276.812 557.875C273.896 560.792 270.25 562.25 265.875 562.25C261.5 562.25 257.75 560.792 254.625 557.875C251.708 554.75 250.25 551 250.25 546.625C250.25 542.25 251.708 538.604 254.625 535.688C257.75 532.563 261.5 531 265.875 531C270.25 531 273.896 532.563 276.812 535.688C279.937 538.604 281.5 542.25 281.5 546.625C281.5 551 279.937 554.75 276.812 557.875ZM401.812 557.875C398.896 560.792 395.25 562.25 390.875 562.25C386.5 562.25 382.75 560.792 379.625 557.875C376.708 554.75 375.25 551 375.25 546.625C375.25 542.25 376.708 538.604 379.625 535.688C382.75 532.563 386.5 531 390.875 531C395.25 531 398.896 532.563 401.812 535.688C404.937 538.604 406.5 542.25 406.5 546.625C406.5 551 404.937 554.75 401.812 557.875ZM526.812 557.875C523.896 560.792 520.25 562.25 515.875 562.25C511.5 562.25 507.75 560.792 504.625 557.875C501.708 554.75 500.25 551 500.25 546.625C500.25 542.25 501.708 538.604 504.625 535.688C507.75 532.563 511.5 531 515.875 531C520.25 531 523.896 532.563 526.812 535.688C529.937 538.604 531.5 542.25 531.5 546.625C531.5 551 529.937 554.75 526.812 557.875ZM339.312 557.875C336.396 560.792 332.75 562.25 328.375 562.25C324 562.25 320.25 560.792 317.125 557.875C314.208 554.75 312.75 551 312.75 546.625C312.75 542.25 314.208 538.604 317.125 535.688C320.25 532.563 324 531 328.375 531C332.75 531 336.396 532.563 339.312 535.688C342.437 538.604 344 542.25 344 546.625C344 551 342.437 554.75 339.312 557.875ZM401.812 589.125C398.896 592.042 395.25 593.5 390.875 593.5C386.5 593.5 382.75 592.042 379.625 589.125C376.708 586 375.25 582.25 375.25 577.875C375.25 573.5 376.708 569.854 379.625 566.938C382.75 563.813 386.5 562.25 390.875 562.25C395.25 562.25 398.896 563.813 401.812 566.938C404.937 569.854 406.5 573.5 406.5 577.875C406.5 582.25 404.937 586 401.812 589.125ZM339.312 589.125C336.396 592.042 332.75 593.5 328.375 593.5C324 593.5 320.25 592.042 317.125 589.125C314.208 586 312.75 582.25 312.75 577.875C312.75 573.5 314.208 569.854 317.125 566.938C320.25 563.813 324 562.25 328.375 562.25C332.75 562.25 336.396 563.813 339.312 566.938C342.437 569.854 344 573.5 344 577.875C344 582.25 342.437 586 339.312 589.125ZM526.812 589.125C523.896 592.042 520.25 593.5 515.875 593.5C511.5 593.5 507.75 592.042 504.625 589.125C501.708 586 500.25 582.25 500.25 577.875C500.25 573.5 501.708 569.854 504.625 566.938C507.75 563.813 511.5 562.25 515.875 562.25C520.25 562.25 523.896 563.813 526.812 566.938C529.937 569.854 531.5 573.5 531.5 577.875C531.5 582.25 529.937 586 526.812 589.125ZM495.562 589.125C492.646 592.042 489 593.5 484.625 593.5C480.25 593.5 476.5 592.042 473.375 589.125C470.458 586 469 582.25 469 577.875C469 573.5 470.458 569.854 473.375 566.938C476.5 563.813 480.25 562.25 484.625 562.25C489 562.25 492.646 563.813 495.562 566.938C498.687 569.854 500.25 573.5 500.25 577.875C500.25 582.25 498.687 586 495.562 589.125ZM370.562 589.125C367.646 592.042 364 593.5 359.625 593.5C355.25 593.5 351.5 592.042 348.375 589.125C345.458 586 344 582.25 344 577.875C344 573.5 345.458 569.854 348.375 566.938C351.5 563.813 355.25 562.25 359.625 562.25C364 562.25 367.646 563.813 370.562 566.938C373.687 569.854 375.25 573.5 375.25 577.875C375.25 582.25 373.687 586 370.562 589.125ZM276.812 589.125C273.896 592.042 270.25 593.5 265.875 593.5C261.5 593.5 257.75 592.042 254.625 589.125C251.708 586 250.25 582.25 250.25 577.875C250.25 573.5 251.708 569.854 254.625 566.938C257.75 563.813 261.5 562.25 265.875 562.25C270.25 562.25 273.896 563.813 276.812 566.938C279.937 569.854 281.5 573.5 281.5 577.875C281.5 582.25 279.937 586 276.812 589.125ZM245.562 589.125C242.646 592.042 239 593.5 234.625 593.5C230.25 593.5 226.5 592.042 223.375 589.125C220.458 586 219 582.25 219 577.875C219 573.5 220.458 569.854 223.375 566.938C226.5 563.813 230.25 562.25 234.625 562.25C239 562.25 242.646 563.813 245.562 566.938C248.687 569.854 250.25 573.5 250.25 577.875C250.25 582.25 248.687 586 245.562 589.125ZM433.062 589.125C430.146 592.042 426.5 593.5 422.125 593.5C417.75 593.5 414 592.042 410.875 589.125C407.958 586 406.5 582.25 406.5 577.875C406.5 573.5 407.958 569.854 410.875 566.938C414 563.813 417.75 562.25 422.125 562.25C426.5 562.25 430.146 563.813 433.062 566.938C436.187 569.854 437.75 573.5 437.75 577.875C437.75 582.25 436.187 586 433.062 589.125ZM370.562 620.375C367.646 623.292 364 624.75 359.625 624.75C355.25 624.75 351.5 623.292 348.375 620.375C345.458 617.25 344 613.5 344 609.125C344 604.75 345.458 601.104 348.375 598.188C351.5 595.063 355.25 593.5 359.625 593.5C364 593.5 367.646 595.063 370.562 598.188C373.687 601.104 375.25 604.75 375.25 609.125C375.25 613.5 373.687 617.25 370.562 620.375ZM495.562 620.375C492.646 623.292 489 624.75 484.625 624.75C480.25 624.75 476.5 623.292 473.375 620.375C470.458 617.25 469 613.5 469 609.125C469 604.75 470.458 601.104 473.375 598.188C476.5 595.063 480.25 593.5 484.625 593.5C489 593.5 492.646 595.063 495.562 598.188C498.687 601.104 500.25 604.75 500.25 609.125C500.25 613.5 498.687 617.25 495.562 620.375ZM526.812 620.375C523.896 623.292 520.25 624.75 515.875 624.75C511.5 624.75 507.75 623.292 504.625 620.375C501.708 617.25 500.25 613.5 500.25 609.125C500.25 604.75 501.708 601.104 504.625 598.188C507.75 595.063 511.5 593.5 515.875 593.5C520.25 593.5 523.896 595.063 526.812 598.188C529.937 601.104 531.5 604.75 531.5 609.125C531.5 613.5 529.937 617.25 526.812 620.375ZM276.812 620.375C273.896 623.292 270.25 624.75 265.875 624.75C261.5 624.75 257.75 623.292 254.625 620.375C251.708 617.25 250.25 613.5 250.25 609.125C250.25 604.75 251.708 601.104 254.625 598.188C257.75 595.063 261.5 593.5 265.875 593.5C270.25 593.5 273.896 595.063 276.812 598.188C279.937 601.104 281.5 604.75 281.5 609.125C281.5 613.5 279.937 617.25 276.812 620.375ZM245.562 620.375C242.646 623.292 239 624.75 234.625 624.75C230.25 624.75 226.5 623.292 223.375 620.375C220.458 617.25 219 613.5 219 609.125C219 604.75 220.458 601.104 223.375 598.188C226.5 595.063 230.25 593.5 234.625 593.5C239 593.5 242.646 595.063 245.562 598.188C248.687 601.104 250.25 604.75 250.25 609.125C250.25 613.5 248.687 617.25 245.562 620.375ZM401.812 620.375C398.896 623.292 395.25 624.75 390.875 624.75C386.5 624.75 382.75 623.292 379.625 620.375C376.708 617.25 375.25 613.5 375.25 609.125C375.25 604.75 376.708 601.104 379.625 598.188C382.75 595.063 386.5 593.5 390.875 593.5C395.25 593.5 398.896 595.063 401.812 598.188C404.937 601.104 406.5 604.75 406.5 609.125C406.5 613.5 404.937 617.25 401.812 620.375ZM370.562 651.625C367.646 654.542 364 656 359.625 656C355.25 656 351.5 654.542 348.375 651.625C345.458 648.5 344 644.75 344 640.375C344 636 345.458 632.354 348.375 629.438C351.5 626.313 355.25 624.75 359.625 624.75C364 624.75 367.646 626.313 370.562 629.438C373.687 632.354 375.25 636 375.25 640.375C375.25 644.75 373.687 648.5 370.562 651.625ZM276.812 651.625C273.896 654.542 270.25 656 265.875 656C261.5 656 257.75 654.542 254.625 651.625C251.708 648.5 250.25 644.75 250.25 640.375C250.25 636 251.708 632.354 254.625 629.438C257.75 626.313 261.5 624.75 265.875 624.75C270.25 624.75 273.896 626.313 276.812 629.438C279.937 632.354 281.5 636 281.5 640.375C281.5 644.75 279.937 648.5 276.812 651.625ZM526.812 651.625C523.896 654.542 520.25 656 515.875 656C511.5 656 507.75 654.542 504.625 651.625C501.708 648.5 500.25 644.75 500.25 640.375C500.25 636 501.708 632.354 504.625 629.438C507.75 626.313 511.5 624.75 515.875 624.75C520.25 624.75 523.896 626.313 526.812 629.438C529.937 632.354 531.5 636 531.5 640.375C531.5 644.75 529.937 648.5 526.812 651.625ZM495.562 651.625C492.646 654.542 489 656 484.625 656C480.25 656 476.5 654.542 473.375 651.625C470.458 648.5 469 644.75 469 640.375C469 636 470.458 632.354 473.375 629.438C476.5 626.313 480.25 624.75 484.625 624.75C489 624.75 492.646 626.313 495.562 629.438C498.687 632.354 500.25 636 500.25 640.375C500.25 644.75 498.687 648.5 495.562 651.625ZM401.812 651.625C398.896 654.542 395.25 656 390.875 656C386.5 656 382.75 654.542 379.625 651.625C376.708 648.5 375.25 644.75 375.25 640.375C375.25 636 376.708 632.354 379.625 629.438C382.75 626.313 386.5 624.75 390.875 624.75C395.25 624.75 398.896 626.313 401.812 629.438C404.937 632.354 406.5 636 406.5 640.375C406.5 644.75 404.937 648.5 401.812 651.625ZM245.562 651.625C242.646 654.542 239 656 234.625 656C230.25 656 226.5 654.542 223.375 651.625C220.458 648.5 219 644.75 219 640.375C219 636 220.458 632.354 223.375 629.438C226.5 626.313 230.25 624.75 234.625 624.75C239 624.75 242.646 626.313 245.562 629.438C248.687 632.354 250.25 636 250.25 640.375C250.25 644.75 248.687 648.5 245.562 651.625ZM714.312 432.875C711.396 435.792 707.75 437.25 703.375 437.25C699 437.25 695.25 435.792 692.125 432.875C689.208 429.75 687.75 426 687.75 421.625C687.75 417.25 689.208 413.604 692.125 410.688C695.25 407.563 699 406 703.375 406C707.75 406 711.396 407.563 714.312 410.688C717.437 413.604 719 417.25 719 421.625C719 426 717.437 429.75 714.312 432.875ZM683.062 432.875C680.146 435.792 676.5 437.25 672.125 437.25C667.75 437.25 664 435.792 660.875 432.875C657.958 429.75 656.5 426 656.5 421.625C656.5 417.25 657.958 413.604 660.875 410.688C664 407.563 667.75 406 672.125 406C676.5 406 680.146 407.563 683.062 410.688C686.187 413.604 687.75 417.25 687.75 421.625C687.75 426 686.187 429.75 683.062 432.875ZM651.812 432.875C648.896 435.792 645.25 437.25 640.875 437.25C636.5 437.25 632.75 435.792 629.625 432.875C626.708 429.75 625.25 426 625.25 421.625C625.25 417.25 626.708 413.604 629.625 410.688C632.75 407.563 636.5 406 640.875 406C645.25 406 648.896 407.563 651.812 410.688C654.937 413.604 656.5 417.25 656.5 421.625C656.5 426 654.937 429.75 651.812 432.875ZM714.312 464.125C711.396 467.042 707.75 468.5 703.375 468.5C699 468.5 695.25 467.042 692.125 464.125C689.208 461 687.75 457.25 687.75 452.875C687.75 448.5 689.208 444.854 692.125 441.938C695.25 438.813 699 437.25 703.375 437.25C707.75 437.25 711.396 438.813 714.312 441.938C717.437 444.854 719 448.5 719 452.875C719 457.25 717.437 461 714.312 464.125ZM620.562 464.125C617.646 467.042 614 468.5 609.625 468.5C605.25 468.5 601.5 467.042 598.375 464.125C595.458 461 594 457.25 594 452.875C594 448.5 595.458 444.854 598.375 441.938C601.5 438.813 605.25 437.25 609.625 437.25C614 437.25 617.646 438.813 620.562 441.938C623.687 444.854 625.25 448.5 625.25 452.875C625.25 457.25 623.687 461 620.562 464.125ZM745.562 464.125C742.646 467.042 739 468.5 734.625 468.5C730.25 468.5 726.5 467.042 723.375 464.125C720.458 461 719 457.25 719 452.875C719 448.5 720.458 444.854 723.375 441.938C726.5 438.813 730.25 437.25 734.625 437.25C739 437.25 742.646 438.813 745.562 441.938C748.687 444.854 750.25 448.5 750.25 452.875C750.25 457.25 748.687 461 745.562 464.125ZM683.062 464.125C680.146 467.042 676.5 468.5 672.125 468.5C667.75 468.5 664 467.042 660.875 464.125C657.958 461 656.5 457.25 656.5 452.875C656.5 448.5 657.958 444.854 660.875 441.938C664 438.813 667.75 437.25 672.125 437.25C676.5 437.25 680.146 438.813 683.062 441.938C686.187 444.854 687.75 448.5 687.75 452.875C687.75 457.25 686.187 461 683.062 464.125ZM651.812 464.125C648.896 467.042 645.25 468.5 640.875 468.5C636.5 468.5 632.75 467.042 629.625 464.125C626.708 461 625.25 457.25 625.25 452.875C625.25 448.5 626.708 444.854 629.625 441.938C632.75 438.813 636.5 437.25 640.875 437.25C645.25 437.25 648.896 438.813 651.812 441.938C654.937 444.854 656.5 448.5 656.5 452.875C656.5 457.25 654.937 461 651.812 464.125ZM589.312 495.375C586.396 498.292 582.75 499.75 578.375 499.75C574 499.75 570.25 498.292 567.125 495.375C564.208 492.25 562.75 488.5 562.75 484.125C562.75 479.75 564.208 476.104 567.125 473.188C570.25 470.063 574 468.5 578.375 468.5C582.75 468.5 586.396 470.063 589.312 473.188C592.437 476.104 594 479.75 594 484.125C594 488.5 592.437 492.25 589.312 495.375ZM745.562 495.375C742.646 498.292 739 499.75 734.625 499.75C730.25 499.75 726.5 498.292 723.375 495.375C720.458 492.25 719 488.5 719 484.125C719 479.75 720.458 476.104 723.375 473.188C726.5 470.063 730.25 468.5 734.625 468.5C739 468.5 742.646 470.063 745.562 473.188C748.687 476.104 750.25 479.75 750.25 484.125C750.25 488.5 748.687 492.25 745.562 495.375ZM620.562 495.375C617.646 498.292 614 499.75 609.625 499.75C605.25 499.75 601.5 498.292 598.375 495.375C595.458 492.25 594 488.5 594 484.125C594 479.75 595.458 476.104 598.375 473.188C601.5 470.063 605.25 468.5 609.625 468.5C614 468.5 617.646 470.063 620.562 473.188C623.687 476.104 625.25 479.75 625.25 484.125C625.25 488.5 623.687 492.25 620.562 495.375ZM776.812 495.375C773.896 498.292 770.25 499.75 765.875 499.75C761.5 499.75 757.75 498.292 754.625 495.375C751.708 492.25 750.25 488.5 750.25 484.125C750.25 479.75 751.708 476.104 754.625 473.188C757.75 470.063 761.5 468.5 765.875 468.5C770.25 468.5 773.896 470.063 776.812 473.188C779.937 476.104 781.5 479.75 781.5 484.125C781.5 488.5 779.937 492.25 776.812 495.375ZM620.562 526.625C617.646 529.542 614 531 609.625 531C605.25 531 601.5 529.542 598.375 526.625C595.458 523.5 594 519.75 594 515.375C594 511 595.458 507.354 598.375 504.438C601.5 501.313 605.25 499.75 609.625 499.75C614 499.75 617.646 501.313 620.562 504.438C623.687 507.354 625.25 511 625.25 515.375C625.25 519.75 623.687 523.5 620.562 526.625ZM745.562 526.625C742.646 529.542 739 531 734.625 531C730.25 531 726.5 529.542 723.375 526.625C720.458 523.5 719 519.75 719 515.375C719 511 720.458 507.354 723.375 504.438C726.5 501.313 730.25 499.75 734.625 499.75C739 499.75 742.646 501.313 745.562 504.438C748.687 507.354 750.25 511 750.25 515.375C750.25 519.75 748.687 523.5 745.562 526.625ZM776.812 526.625C773.896 529.542 770.25 531 765.875 531C761.5 531 757.75 529.542 754.625 526.625C751.708 523.5 750.25 519.75 750.25 515.375C750.25 511 751.708 507.354 754.625 504.438C757.75 501.313 761.5 499.75 765.875 499.75C770.25 499.75 773.896 501.313 776.812 504.438C779.937 507.354 781.5 511 781.5 515.375C781.5 519.75 779.937 523.5 776.812 526.625ZM589.312 526.625C586.396 529.542 582.75 531 578.375 531C574 531 570.25 529.542 567.125 526.625C564.208 523.5 562.75 519.75 562.75 515.375C562.75 511 564.208 507.354 567.125 504.438C570.25 501.313 574 499.75 578.375 499.75C582.75 499.75 586.396 501.313 589.312 504.438C592.437 507.354 594 511 594 515.375C594 519.75 592.437 523.5 589.312 526.625ZM651.812 526.625C648.896 529.542 645.25 531 640.875 531C636.5 531 632.75 529.542 629.625 526.625C626.708 523.5 625.25 519.75 625.25 515.375C625.25 511 626.708 507.354 629.625 504.438C632.75 501.313 636.5 499.75 640.875 499.75C645.25 499.75 648.896 501.313 651.812 504.438C654.937 507.354 656.5 511 656.5 515.375C656.5 519.75 654.937 523.5 651.812 526.625ZM683.062 526.625C680.146 529.542 676.5 531 672.125 531C667.75 531 664 529.542 660.875 526.625C657.958 523.5 656.5 519.75 656.5 515.375C656.5 511 657.958 507.354 660.875 504.438C664 501.313 667.75 499.75 672.125 499.75C676.5 499.75 680.146 501.313 683.062 504.438C686.187 507.354 687.75 511 687.75 515.375C687.75 519.75 686.187 523.5 683.062 526.625ZM714.312 526.625C711.396 529.542 707.75 531 703.375 531C699 531 695.25 529.542 692.125 526.625C689.208 523.5 687.75 519.75 687.75 515.375C687.75 511 689.208 507.354 692.125 504.438C695.25 501.313 699 499.75 703.375 499.75C707.75 499.75 711.396 501.313 714.312 504.438C717.437 507.354 719 511 719 515.375C719 519.75 717.437 523.5 714.312 526.625ZM620.562 557.875C617.646 560.792 614 562.25 609.625 562.25C605.25 562.25 601.5 560.792 598.375 557.875C595.458 554.75 594 551 594 546.625C594 542.25 595.458 538.604 598.375 535.688C601.5 532.563 605.25 531 609.625 531C614 531 617.646 532.563 620.562 535.688C623.687 538.604 625.25 542.25 625.25 546.625C625.25 551 623.687 554.75 620.562 557.875ZM651.812 557.875C648.896 560.792 645.25 562.25 640.875 562.25C636.5 562.25 632.75 560.792 629.625 557.875C626.708 554.75 625.25 551 625.25 546.625C625.25 542.25 626.708 538.604 629.625 535.688C632.75 532.563 636.5 531 640.875 531C645.25 531 648.896 532.563 651.812 535.688C654.937 538.604 656.5 542.25 656.5 546.625C656.5 551 654.937 554.75 651.812 557.875ZM683.062 557.875C680.146 560.792 676.5 562.25 672.125 562.25C667.75 562.25 664 560.792 660.875 557.875C657.958 554.75 656.5 551 656.5 546.625C656.5 542.25 657.958 538.604 660.875 535.688C664 532.563 667.75 531 672.125 531C676.5 531 680.146 532.563 683.062 535.688C686.187 538.604 687.75 542.25 687.75 546.625C687.75 551 686.187 554.75 683.062 557.875ZM714.312 557.875C711.396 560.792 707.75 562.25 703.375 562.25C699 562.25 695.25 560.792 692.125 557.875C689.208 554.75 687.75 551 687.75 546.625C687.75 542.25 689.208 538.604 692.125 535.688C695.25 532.563 699 531 703.375 531C707.75 531 711.396 532.563 714.312 535.688C717.437 538.604 719 542.25 719 546.625C719 551 717.437 554.75 714.312 557.875ZM745.562 557.875C742.646 560.792 739 562.25 734.625 562.25C730.25 562.25 726.5 560.792 723.375 557.875C720.458 554.75 719 551 719 546.625C719 542.25 720.458 538.604 723.375 535.688C726.5 532.563 730.25 531 734.625 531C739 531 742.646 532.563 745.562 535.688C748.687 538.604 750.25 542.25 750.25 546.625C750.25 551 748.687 554.75 745.562 557.875ZM776.812 557.875C773.896 560.792 770.25 562.25 765.875 562.25C761.5 562.25 757.75 560.792 754.625 557.875C751.708 554.75 750.25 551 750.25 546.625C750.25 542.25 751.708 538.604 754.625 535.688C757.75 532.563 761.5 531 765.875 531C770.25 531 773.896 532.563 776.812 535.688C779.937 538.604 781.5 542.25 781.5 546.625C781.5 551 779.937 554.75 776.812 557.875ZM589.312 557.875C586.396 560.792 582.75 562.25 578.375 562.25C574 562.25 570.25 560.792 567.125 557.875C564.208 554.75 562.75 551 562.75 546.625C562.75 542.25 564.208 538.604 567.125 535.688C570.25 532.563 574 531 578.375 531C582.75 531 586.396 532.563 589.312 535.688C592.437 538.604 594 542.25 594 546.625C594 551 592.437 554.75 589.312 557.875ZM620.562 589.125C617.646 592.042 614 593.5 609.625 593.5C605.25 593.5 601.5 592.042 598.375 589.125C595.458 586 594 582.25 594 577.875C594 573.5 595.458 569.854 598.375 566.938C601.5 563.813 605.25 562.25 609.625 562.25C614 562.25 617.646 563.813 620.562 566.938C623.687 569.854 625.25 573.5 625.25 577.875C625.25 582.25 623.687 586 620.562 589.125ZM589.312 589.125C586.396 592.042 582.75 593.5 578.375 593.5C574 593.5 570.25 592.042 567.125 589.125C564.208 586 562.75 582.25 562.75 577.875C562.75 573.5 564.208 569.854 567.125 566.938C570.25 563.813 574 562.25 578.375 562.25C582.75 562.25 586.396 563.813 589.312 566.938C592.437 569.854 594 573.5 594 577.875C594 582.25 592.437 586 589.312 589.125ZM620.562 620.375C617.646 623.292 614 624.75 609.625 624.75C605.25 624.75 601.5 623.292 598.375 620.375C595.458 617.25 594 613.5 594 609.125C594 604.75 595.458 601.104 598.375 598.188C601.5 595.063 605.25 593.5 609.625 593.5C614 593.5 617.646 595.063 620.562 598.188C623.687 601.104 625.25 604.75 625.25 609.125C625.25 613.5 623.687 617.25 620.562 620.375ZM651.812 620.375C648.896 623.292 645.25 624.75 640.875 624.75C636.5 624.75 632.75 623.292 629.625 620.375C626.708 617.25 625.25 613.5 625.25 609.125C625.25 604.75 626.708 601.104 629.625 598.188C632.75 595.063 636.5 593.5 640.875 593.5C645.25 593.5 648.896 595.063 651.812 598.188C654.937 601.104 656.5 604.75 656.5 609.125C656.5 613.5 654.937 617.25 651.812 620.375ZM683.062 620.375C680.146 623.292 676.5 624.75 672.125 624.75C667.75 624.75 664 623.292 660.875 620.375C657.958 617.25 656.5 613.5 656.5 609.125C656.5 604.75 657.958 601.104 660.875 598.188C664 595.063 667.75 593.5 672.125 593.5C676.5 593.5 680.146 595.063 683.062 598.188C686.187 601.104 687.75 604.75 687.75 609.125C687.75 613.5 686.187 617.25 683.062 620.375ZM714.312 620.375C711.396 623.292 707.75 624.75 703.375 624.75C699 624.75 695.25 623.292 692.125 620.375C689.208 617.25 687.75 613.5 687.75 609.125C687.75 604.75 689.208 601.104 692.125 598.188C695.25 595.063 699 593.5 703.375 593.5C707.75 593.5 711.396 595.063 714.312 598.188C717.437 601.104 719 604.75 719 609.125C719 613.5 717.437 617.25 714.312 620.375ZM745.562 620.375C742.646 623.292 739 624.75 734.625 624.75C730.25 624.75 726.5 623.292 723.375 620.375C720.458 617.25 719 613.5 719 609.125C719 604.75 720.458 601.104 723.375 598.188C726.5 595.063 730.25 593.5 734.625 593.5C739 593.5 742.646 595.063 745.562 598.188C748.687 601.104 750.25 604.75 750.25 609.125C750.25 613.5 748.687 617.25 745.562 620.375ZM776.812 620.375C773.896 623.292 770.25 624.75 765.875 624.75C761.5 624.75 757.75 623.292 754.625 620.375C751.708 617.25 750.25 613.5 750.25 609.125C750.25 604.75 751.708 601.104 754.625 598.188C757.75 595.063 761.5 593.5 765.875 593.5C770.25 593.5 773.896 595.063 776.812 598.188C779.937 601.104 781.5 604.75 781.5 609.125C781.5 613.5 779.937 617.25 776.812 620.375ZM651.812 651.625C648.896 654.542 645.25 656 640.875 656C636.5 656 632.75 654.542 629.625 651.625C626.708 648.5 625.25 644.75 625.25 640.375C625.25 636 626.708 632.354 629.625 629.438C632.75 626.313 636.5 624.75 640.875 624.75C645.25 624.75 648.896 626.313 651.812 629.438C654.937 632.354 656.5 636 656.5 640.375C656.5 644.75 654.937 648.5 651.812 651.625ZM683.062 651.625C680.146 654.542 676.5 656 672.125 656C667.75 656 664 654.542 660.875 651.625C657.958 648.5 656.5 644.75 656.5 640.375C656.5 636 657.958 632.354 660.875 629.438C664 626.313 667.75 624.75 672.125 624.75C676.5 624.75 680.146 626.313 683.062 629.438C686.187 632.354 687.75 636 687.75 640.375C687.75 644.75 686.187 648.5 683.062 651.625ZM714.312 651.625C711.396 654.542 707.75 656 703.375 656C699 656 695.25 654.542 692.125 651.625C689.208 648.5 687.75 644.75 687.75 640.375C687.75 636 689.208 632.354 692.125 629.438C695.25 626.313 699 624.75 703.375 624.75C707.75 624.75 711.396 626.313 714.312 629.438C717.437 632.354 719 636 719 640.375C719 644.75 717.437 648.5 714.312 651.625ZM745.562 651.625C742.646 654.542 739 656 734.625 656C730.25 656 726.5 654.542 723.375 651.625C720.458 648.5 719 644.75 719 640.375C719 636 720.458 632.354 723.375 629.438C726.5 626.313 730.25 624.75 734.625 624.75C739 624.75 742.646 626.313 745.562 629.438C748.687 632.354 750.25 636 750.25 640.375C750.25 644.75 748.687 648.5 745.562 651.625Z" fill="white"/>
</g>
<path d="M618 375.5C660 302.5 635.5 288.5 785.5 280C738 352 737.5 381.5 618 375.5Z" fill="white"/>
</g>
<defs>
<filter id="filter0_d_245_2" x="-31" y="93.5" width="1062.5" height="812.5" filterUnits="userSpaceOnUse" color-interpolation-filters="sRGB">
<feFlood flood-opacity="0" result="BackgroundImageFix"/>
<feColorMatrix in="SourceAlpha" type="matrix" values="0 0 0 0 0 0 0 0 0 0 0 0 0 0 0 0 0 0 127 0" result="hardAlpha"/>
<feOffset/>
<feGaussianBlur stdDeviation="125"/>
<feComposite in2="hardAlpha" operator="out"/>
<feColorMatrix type="matrix" values="0 0 0 0 0 0 0 0 0 0.683333 0 0 0 0 1 0 0 0 1 0"/>
<feBlend mode="normal" in2="BackgroundImageFix" result="effect1_dropShadow_245_2"/>
<feBlend mode="normal" in="SourceGraphic" in2="effect1_dropShadow_245_2" result="shape"/>
</filter>
<radialGradient id="paint0_radial_245_2" cx="0" cy="0" r="1" gradientUnits="userSpaceOnUse" gradientTransform="translate(403.5 403.5) rotate(90) scale(403.5)">
<stop stop-color="#84FF00" stop-opacity="0.45"/>
<stop offset="1" stop-color="#999999" stop-opacity="0"/>
</radialGradient>
<radialGradient id="paint1_radial_245_2" cx="0" cy="0" r="1" gradientUnits="userSpaceOnUse" gradientTransform="translate(403.5 403.5) rotate(90) scale(403.5)">
<stop stop-color="white" stop-opacity="0.45"/>
<stop offset="1" stop-color="#999999" stop-opacity="0"/>
</radialGradient>
<radialGradient id="paint2_radial_245_2" cx="0" cy="0" r="1" gradientUnits="userSpaceOnUse" gradientTransform="translate(560 560) rotate(90) scale(560)">
<stop stop-color="#FF0055" stop-opacity="0.45"/>
<stop offset="1" stop-color="#999999" stop-opacity="0"/>
</radialGradient>
<clipPath id="clip0_245_2">
<rect width="1000" height="1000" rx="500" fill="white"/>
</clipPath>
</defs>
</svg>
